<!DOCTYPE svg PUBLIC "-//W3C//DTD SVG 20010904//EN" "http://www.w3.org/TR/2001/REC-SVG-20010904/DTD/svg10.dtd">
<svg version="1.0" xmlns="http://www.w3.org/2000/svg" width="150px" height="214px" viewBox="0 0 1500 2140" preserveAspectRatio="xMidYMid meet">
<g id="layer1" fill="#949494" stroke="none">
 <path d="M699 2107 c-8 -8 -32 -39 -54 -71 -21 -31 -44 -55 -51 -52 -32 12 -152 18 -158 7 -4 -6 11 -37 33 -69 l41 -57 -62 -5 c-75 -6 -91 -15 -145 -73 -50 -54 -67 -102 -61 -173 10 -115 108 -194 242 -194 51 0 78 5 96 17 l25 17 -24 -39 c-50 -86 -153 -225 -240 -325 -164 -188 -207 -244 -253 -325 -47 -81 -89 -219 -87 -279 1 -27 3 -25 12 14 6 25 14 47 17 50 4 3 13 23 20 45 37 117 114 233 270 410 240 273 350 449 350 561 0 56 -16 87 -72 142 -74 72 -137 68 -203 -13 -29 -35 -39 -57 -43 -94 -4 -42 -1 -50 19 -65 14 -9 43 -16 71 -16 40 0 50 4 64 25 20 31 26 31 60 2 33 -28 27 -60 -16 -82 -91 -47 -239 25 -270 132 -11 36 -11 49 4 88 23 59 59 101 109 126 43 22 87 20 139 -7 15 -8 32 -14 38 -14 23 0 21 32 -4 65 -14 19 -38 51 -53 71 l-27 36 71 -7 72 -7 47 66 c26 36 51 63 55 60 5 -3 25 -29 45 -60 42 -62 59 -69 143 -56 34 5 61 6 61 4 0 -3 -23 -39 -51 -79 -48 -70 -60 -112 -28 -104 90 23 127 22 184 -7 67 -33 105 -87 105 -149 -1 -130 -160 -246 -242 -175 -35 30 31 82 67 52 25 -21 65 -3 81 35 19 46 18 68 -6 115 -23 45 -60 68 -122 76 -89 11 -143 -58 -136 -171 7 -112 116 -281 354 -550 160 -182 217 -261 251 -350 15 -38 31 -72 35 -75 4 -3 11 -28 16 -55 l10 -50 1 40 c1 67 -35 181 -84 263 -26 42 -96 133 -157 202 -195 220 -363 442 -322 426 88 -36 190 0 246 87 29 45 33 62 36 127 3 66 1 79 -20 110 -34 50 -116 91 -193 98 l-62 5 38 61 c52 81 54 85 41 98 -9 9 -34 9 -94 1 -63 -9 -85 -8 -90 0 -3 7 -24 37 -45 67 -40 57 -70 72 -94 47z m-136 -417 c49 -43 82 -109 72 -146 l-7 -29 -10 25 c-22 61 -111 83 -142 35 -18 -28 -52 -33 -81 -11 -18 13 -18 15 -1 59 21 56 67 97 106 97 18 0 42 -11 63 -30z m473 -34 c35 -35 43 -70 24 -107 -9 -16 -14 -17 -32 -8 -40 21 -128 -18 -128 -58 0 -27 -17 -3 -30 41 -15 54 -7 104 21 140 17 21 29 26 66 26 38 0 50 -5 79 -34z"/>
 <path d="M732 1427 c-5 -6 -21 -35 -35 -63 -56 -111 -191 -289 -382 -504 -271 -304 -298 -682 -53 -755 65 -19 190 -20 252 -1 64 19 136 68 165 112 29 42 39 128 22 189 -15 57 -65 132 -103 155 -44 26 -122 27 -165 0 -57 -35 -96 -153 -61 -188 19 -19 59 -14 94 13 39 30 55 31 78 6 35 -38 -13 -90 -90 -99 -63 -7 -117 31 -151 104 -30 65 -26 110 15 173 29 45 106 91 152 91 49 0 144 -57 208 -125 39 -41 67 -62 76 -59 8 3 30 26 50 51 130 167 317 177 397 21 50 -97 -6 -220 -112 -248 -45 -13 -91 3 -128 43 -27 30 -23 52 13 68 22 10 29 8 61 -20 45 -39 82 -41 95 -5 28 72 -7 154 -83 192 -43 23 -52 24 -87 13 -128 -38 -206 -245 -137 -363 54 -93 151 -138 296 -138 106 0 150 19 208 84 53 61 73 119 73 219 0 93 -20 177 -62 261 -42 85 -83 138 -235 311 -141 158 -252 305 -303 402 -34 63 -52 80 -68 60z m36 -83 c38 -83 160 -243 318 -419 131 -146 158 -181 205 -266 70 -129 95 -255 69 -349 -15 -56 -65 -126 -109 -156 -77 -51 -232 -42 -321 18 -19 13 -49 43 -67 66 -43 57 -45 123 -7 197 33 66 98 125 135 125 56 0 125 -88 111 -142 -6 -24 -14 -23 -46 7 -39 36 -86 34 -125 -6 -38 -38 -39 -68 -3 -101 68 -64 137 -74 222 -30 72 36 100 87 100 182 0 85 -28 141 -92 186 -84 57 -183 54 -283 -10 -29 -19 -69 -54 -90 -79 l-38 -45 -56 57 c-31 32 -81 70 -113 85 -109 53 -230 23 -294 -73 -31 -48 -43 -139 -24 -195 25 -76 113 -146 185 -146 67 0 155 64 155 112 0 11 -15 35 -34 54 -43 43 -77 44 -123 4 -36 -32 -53 -32 -53 1 0 56 71 129 125 129 87 0 185 -162 157 -259 -18 -58 -73 -115 -139 -142 -82 -34 -216 -33 -286 0 -82 40 -117 106 -117 221 0 170 84 327 304 569 98 107 217 265 270 358 22 40 44 73 47 73 3 0 11 -12 17 -26z"/>
 <path d="M1488 341 c-4 -24 -11 -47 -16 -50 -5 -3 -22 -30 -37 -59 -34 -63 -121 -146 -185 -176 -25 -11 -47 -24 -50 -27 -3 -4 -30 -11 -60 -17 l-55 -10 45 -1 c63 -1 178 38 229 79 24 19 57 55 75 80 37 51 70 151 64 195 -3 26 -4 24 -10 -14z"/>
 <path d="M1 336 c-4 -101 80 -235 179 -285 47 -25 158 -51 206 -50 37 1 36 2 -16 11 -30 6 -57 13 -60 17 -3 4 -27 15 -54 25 -67 26 -145 92 -183 156 -18 30 -36 60 -41 66 -5 5 -14 28 -20 50 -9 35 -10 36 -11 10z"/>
 <path d="M711 116 c-17 -18 -55 -44 -84 -57 -29 -13 -54 -27 -57 -30 -3 -4 -30 -11 -60 -17 l-55 -10 45 -1 c64 -1 177 33 220 68 l36 28 40 -29 c46 -33 167 -69 228 -67 39 1 38 2 -16 11 -32 6 -58 14 -58 19 0 5 -5 9 -11 9 -22 0 -114 52 -144 81 -17 16 -35 29 -41 29 -6 0 -25 -15 -43 -34z"/>
 </g>
<g id="layer2" fill="#000000" stroke="none">
 <path d="M660 2039 c-46 -63 -54 -70 -78 -65 -77 15 -120 17 -127 6 -4 -6 16 -42 45 -82 33 -45 45 -68 33 -64 -10 4 -41 10 -69 13 -83 9 -152 -37 -193 -127 -39 -86 -18 -178 55 -238 46 -38 89 -52 162 -52 57 0 106 19 116 45 14 37 6 74 -20 94 -37 29 -78 27 -98 -4 -18 -28 -49 -32 -91 -13 -40 18 -30 68 26 133 57 65 95 66 158 3 46 -45 71 -87 71 -120 0 -93 -126 -288 -350 -543 -188 -213 -247 -313 -280 -473 -25 -124 -25 -176 -1 -270 23 -86 53 -136 113 -185 63 -50 91 -62 206 -82 98 -16 107 -16 200 0 106 19 154 39 191 79 l25 26 25 -24 c43 -40 101 -63 202 -81 89 -16 101 -16 190 0 52 10 106 23 120 31 38 19 125 100 149 138 55 89 71 228 45 373 -30 163 -76 240 -271 458 -186 208 -273 327 -334 457 -34 71 -37 110 -14 167 36 90 156 85 204 -9 18 -36 19 -43 6 -74 -16 -37 -31 -52 -41 -36 -11 18 -83 12 -105 -10 -42 -42 -17 -92 51 -105 78 -14 174 41 210 119 22 49 25 146 5 184 -36 69 -106 106 -203 106 -40 1 -73 2 -73 4 0 2 23 37 51 78 63 94 59 101 -46 85 -42 -6 -80 -9 -85 -6 -4 2 -27 34 -51 70 -25 36 -51 65 -61 65 -9 0 -39 -32 -68 -71z m123 -695 c44 -88 157 -239 300 -399 195 -221 247 -302 281 -432 58 -222 -52 -403 -244 -403 -169 0 -302 100 -302 226 0 98 99 234 170 234 64 0 140 -90 127 -151 -9 -42 -20 -43 -58 -9 -44 38 -88 40 -122 5 -35 -34 -31 -57 14 -98 44 -40 84 -52 141 -42 91 15 150 93 150 198 0 126 -83 207 -212 207 -95 -1 -174 -44 -244 -133 l-36 -46 -55 59 c-128 139 -283 158 -380 47 -81 -92 -63 -247 36 -313 36 -23 48 -26 106 -22 55 3 69 8 95 33 52 49 36 113 -32 130 -21 5 -35 0 -67 -26 -34 -27 -43 -30 -56 -19 -8 7 -15 21 -15 32 0 33 40 98 73 118 68 42 139 13 194 -79 59 -99 54 -186 -14 -256 -133 -137 -412 -121 -489 27 -74 143 7 402 191 608 194 219 333 402 386 513 13 26 25 47 28 46 4 0 18 -25 34 -55z"/>
 </g>

</svg>